<?xml version="1.0" encoding="UTF-8" standalone="no"?>
<!-- Created with Inkscape (http://www.inkscape.org/) -->

<svg
   width="1781.2953mm"
   height="1781.2953mm"
   viewBox="0 0 1781.2952 1781.2954"
   version="1.1"
   id="svg1"
   xml:space="preserve"
   inkscape:version="1.4 (e7c3feb100, 2024-10-09)"
   sodipodi:docname="comarcat.svg"
   xmlns:inkscape="http://www.inkscape.org/namespaces/inkscape"
   xmlns:sodipodi="http://sodipodi.sourceforge.net/DTD/sodipodi-0.dtd"
   xmlns="http://www.w3.org/2000/svg"
   xmlns:svg="http://www.w3.org/2000/svg"><sodipodi:namedview
     id="namedview1"
     pagecolor="#ffffff"
     bordercolor="#000000"
     borderopacity="0.25"
     inkscape:showpageshadow="2"
     inkscape:pageopacity="0.0"
     inkscape:pagecheckerboard="0"
     inkscape:deskcolor="#d1d1d1"
     inkscape:document-units="mm"
     inkscape:zoom="0.056568542"
     inkscape:cx="4976.264"
     inkscape:cy="3738.8271"
     inkscape:window-width="1920"
     inkscape:window-height="1043"
     inkscape:window-x="0"
     inkscape:window-y="0"
     inkscape:window-maximized="1"
     inkscape:current-layer="layer1" /><defs
     id="defs1" /><g
     inkscape:label="Layer 1"
     inkscape:groupmode="layer"
     id="layer1"
     transform="translate(729.23902,675.45662)"><rect
       style="font-variation-settings:'wght' 600;opacity:1;fill:#d87a0d;fill-opacity:1;stroke:none;stroke-width:142.556;stroke-linecap:square;stroke-linejoin:round;stroke-miterlimit:35.2;stroke-dasharray:none;stroke-opacity:1;paint-order:stroke fill markers"
       id="rect12"
       width="1781.2953"
       height="1781.2953"
       x="0"
       y="0"
       ry="415.18915"
       transform="translate(-729.23902,-675.45662)" /><path
       id="path2"
       style="font-variation-settings:'wght' 600;fill:#ffffff;fill-opacity:1;stroke-width:7.38824;stroke-linecap:square;stroke-linejoin:round;stroke-miterlimit:35.2;paint-order:stroke fill markers"
       d="m -99.97032,-456.47851 a 132.7518,132.7518 0 0 0 -18.89269,-1.35129 132.7518,132.7518 0 0 0 -132.7519,132.75173 132.7518,132.7518 0 0 0 19.2606,68.45021 l -110.12768,229.261986 a 132.7518,132.7518 0 0 0 -96.80314,127.690174 132.7518,132.7518 0 0 0 47.28856,101.4281 l 2.11052,419.98928 a 132.7518,132.7518 0 0 0 -92.34068,126.2516 132.7518,132.7518 0 0 0 132.75173,132.75191 132.7518,132.7518 0 0 0 123.75617,-84.82626 L -14.351611,750.21477 A 132.7518,132.7518 0 0 0 103.24494,822.03439 132.7518,132.7518 0 0 0 235.99634,689.28257 132.7518,132.7518 0 0 0 103.24461,556.53067 132.7518,132.7518 0 0 0 59.741931,564.18433 L 0.11431821,517.10257 A 132.7518,132.7518 0 0 0 10.403593,466.02691 L 667.77444,20.586183 a 132.7518,132.7518 0 0 0 43.52764,7.66256 132.7518,132.7518 0 0 0 132.75139,-132.751813 132.7518,132.7518 0 0 0 -132.75173,-132.75191 132.7518,132.7518 0 0 0 -96.04893,41.5398 L 8.3487592,-362.91511 A 132.7518,132.7518 0 0 0 -99.97032,-456.47851 Z m 86.525776,212.02947 444.489394,122.45551 -646.53941,126.0955373 a 132.7518,132.7518 0 0 0 -6.23776,-5.7012862 l 91.99048,-191.5049511 a 132.7518,132.7518 0 0 0 10.87866,0.77806 132.7518,132.7518 0 0 0 105.418636,-52.12287 z M 505.17243,-14.18791 -44.828947,358.4979 a 132.7518,132.7518 0 0 0 -66.685423,-24.59954 l -76.28587,-174.28559 a 132.7518,132.7518 0 0 0 12.74541,-41.13546 z m -776.83847,281.46784 48.91925,111.76223 a 132.7518,132.7518 0 0 0 -32.34896,86.83336 132.7518,132.7518 0 0 0 132.75173,132.7519 132.7518,132.7518 0 0 0 28.182883,-3.06386 l 48.851011,38.57302 -192.787424,41.68438 a 132.7518,132.7518 0 0 0 -31.6847,-33.57537 z"
       transform="rotate(-9.4795381)" /></g></svg>
